<svg width="41" height="40" viewBox="0 0 41 40" fill="none" xmlns="http://www.w3.org/2000/svg">
<g id="instagram-2016-5 1" clip-path="url(#clip0_29_525)">
<path id="Vector" d="M13.9354 20C13.9354 16.3182 16.9192 13.3328 20.601 13.3328C24.2827 13.3328 27.2682 16.3182 27.2682 20C27.2682 23.6818 24.2827 26.6672 20.601 26.6672C16.9192 26.6672 13.9354 23.6818 13.9354 20ZM10.3312 20C10.3312 25.672 14.929 30.2698 20.601 30.2698C26.273 30.2698 30.8707 25.672 30.8707 20C30.8707 14.328 26.273 9.73024 20.601 9.73024C14.929 9.73024 10.3312 14.328 10.3312 20ZM28.8773 9.32304C28.8771 9.79772 29.0177 10.2618 29.2812 10.6566C29.5448 11.0514 29.9195 11.3591 30.3579 11.5409C30.7964 11.7228 31.279 11.7705 31.7445 11.6781C32.2101 11.5857 32.6379 11.3572 32.9736 11.0217C33.3094 10.6862 33.5382 10.2587 33.631 9.79316C33.7238 9.32764 33.6764 8.84506 33.4949 8.40645C33.3135 7.96783 33.006 7.59288 32.6114 7.32901C32.2169 7.06513 31.7529 6.92419 31.2782 6.924H31.2773C30.641 6.9243 30.0309 7.17712 29.5809 7.62693C29.1309 8.07675 28.8778 8.68678 28.8773 9.32304ZM12.521 36.2795C10.571 36.1907 9.51119 35.8659 8.80687 35.5915C7.87311 35.228 7.20687 34.795 6.50639 34.0955C5.80591 33.396 5.37231 32.7304 5.01039 31.7966C4.73583 31.0926 4.41103 30.0325 4.32239 28.0826C4.22543 25.9744 4.20607 25.3411 4.20607 20.0002C4.20607 14.6592 4.22703 14.0277 4.32239 11.9178C4.41119 9.96784 4.73839 8.90976 5.01039 8.20368C5.37391 7.26992 5.80687 6.60368 6.50639 5.9032C7.20591 5.20272 7.87151 4.76912 8.80687 4.4072C9.51087 4.13264 10.571 3.80784 12.521 3.7192C14.6291 3.62224 15.2624 3.60288 20.601 3.60288C25.9395 3.60288 26.5734 3.62384 28.6834 3.7192C30.6333 3.808 31.6914 4.1352 32.3974 4.4072C33.3312 4.76912 33.9974 5.20368 34.6979 5.9032C35.3984 6.60272 35.8304 7.26992 36.1939 8.20368C36.4685 8.90768 36.7933 9.96784 36.8819 11.9178C36.9789 14.0277 36.9982 14.6592 36.9982 20.0002C36.9982 25.3411 36.9789 25.9726 36.8819 28.0826C36.7931 30.0325 36.4667 31.0923 36.1939 31.7966C35.8304 32.7304 35.3974 33.3966 34.6979 34.0955C33.9984 34.7944 33.3312 35.228 32.3974 35.5915C31.6934 35.8661 30.6333 36.1909 28.6834 36.2795C26.5752 36.3765 25.9419 36.3958 20.601 36.3958C15.26 36.3958 14.6285 36.3765 12.521 36.2795ZM12.3554 0.12112C10.2262 0.21808 8.77135 0.55568 7.50079 1.05008C6.18495 1.56064 5.07103 2.2456 3.95791 3.35696C2.84479 4.46832 2.16159 5.584 1.65103 6.89984C1.15663 8.1712 0.819032 9.62528 0.722072 11.7544C0.623512 13.8869 0.600952 14.5686 0.600952 20C0.600952 25.4314 0.623512 26.1131 0.722072 28.2456C0.819032 30.3749 1.15663 31.8288 1.65103 33.1002C2.16159 34.4152 2.84495 35.5322 3.95791 36.643C5.07087 37.7539 6.18495 38.4379 7.50079 38.9499C8.77375 39.4443 10.2262 39.7819 12.3554 39.8789C14.489 39.9758 15.1696 40 20.601 40C26.0323 40 26.7141 39.9774 28.8465 39.8789C30.9758 39.7819 32.4298 39.4443 33.7011 38.9499C35.0162 38.4379 36.1309 37.7544 37.244 36.643C38.3571 35.5317 39.0389 34.4152 39.5509 33.1002C40.0453 31.8288 40.3845 30.3747 40.4798 28.2456C40.5768 26.1115 40.5993 25.4314 40.5993 20C40.5993 14.5686 40.5768 13.8869 40.4798 11.7544C40.3829 9.62512 40.0453 8.1704 39.5509 6.89984C39.0389 5.5848 38.3554 4.47008 37.244 3.35696C36.1326 2.24384 35.0162 1.56064 33.7027 1.05008C32.4298 0.55568 30.9757 0.21648 28.8482 0.12112C26.7157 0.02416 26.0339 0 20.6026 0C15.1712 0 14.489 0.02256 12.3554 0.12112Z" fill="#FA8F21"/>
<path id="Vector_2" d="M13.9354 20C13.9354 16.3182 16.9192 13.3328 20.601 13.3328C24.2827 13.3328 27.2682 16.3182 27.2682 20C27.2682 23.6818 24.2827 26.6672 20.601 26.6672C16.9192 26.6672 13.9354 23.6818 13.9354 20ZM10.3312 20C10.3312 25.672 14.929 30.2698 20.601 30.2698C26.273 30.2698 30.8707 25.672 30.8707 20C30.8707 14.328 26.273 9.73024 20.601 9.73024C14.929 9.73024 10.3312 14.328 10.3312 20ZM28.8773 9.32304C28.8771 9.79772 29.0177 10.2618 29.2812 10.6566C29.5448 11.0514 29.9195 11.3591 30.3579 11.5409C30.7964 11.7228 31.279 11.7705 31.7445 11.6781C32.2101 11.5857 32.6379 11.3572 32.9736 11.0217C33.3094 10.6862 33.5382 10.2587 33.631 9.79316C33.7238 9.32764 33.6764 8.84506 33.4949 8.40645C33.3135 7.96783 33.006 7.59288 32.6114 7.32901C32.2169 7.06513 31.7529 6.92419 31.2782 6.924H31.2773C30.641 6.9243 30.0309 7.17712 29.5809 7.62693C29.1309 8.07675 28.8778 8.68678 28.8773 9.32304ZM12.521 36.2795C10.571 36.1907 9.51119 35.8659 8.80687 35.5915C7.87311 35.228 7.20687 34.795 6.50639 34.0955C5.80591 33.396 5.37231 32.7304 5.01039 31.7966C4.73583 31.0926 4.41103 30.0325 4.32239 28.0826C4.22543 25.9744 4.20607 25.3411 4.20607 20.0002C4.20607 14.6592 4.22703 14.0277 4.32239 11.9178C4.41119 9.96784 4.73839 8.90976 5.01039 8.20368C5.37391 7.26992 5.80687 6.60368 6.50639 5.9032C7.20591 5.20272 7.87151 4.76912 8.80687 4.4072C9.51087 4.13264 10.571 3.80784 12.521 3.7192C14.6291 3.62224 15.2624 3.60288 20.601 3.60288C25.9395 3.60288 26.5734 3.62384 28.6834 3.7192C30.6333 3.808 31.6914 4.1352 32.3974 4.4072C33.3312 4.76912 33.9974 5.20368 34.6979 5.9032C35.3984 6.60272 35.8304 7.26992 36.1939 8.20368C36.4685 8.90768 36.7933 9.96784 36.8819 11.9178C36.9789 14.0277 36.9982 14.6592 36.9982 20.0002C36.9982 25.3411 36.9789 25.9726 36.8819 28.0826C36.7931 30.0325 36.4667 31.0923 36.1939 31.7966C35.8304 32.7304 35.3974 33.3966 34.6979 34.0955C33.9984 34.7944 33.3312 35.228 32.3974 35.5915C31.6934 35.8661 30.6333 36.1909 28.6834 36.2795C26.5752 36.3765 25.9419 36.3958 20.601 36.3958C15.26 36.3958 14.6285 36.3765 12.521 36.2795ZM12.3554 0.12112C10.2262 0.21808 8.77135 0.55568 7.50079 1.05008C6.18495 1.56064 5.07103 2.2456 3.95791 3.35696C2.84479 4.46832 2.16159 5.584 1.65103 6.89984C1.15663 8.1712 0.819032 9.62528 0.722072 11.7544C0.623512 13.8869 0.600952 14.5686 0.600952 20C0.600952 25.4314 0.623512 26.1131 0.722072 28.2456C0.819032 30.3749 1.15663 31.8288 1.65103 33.1002C2.16159 34.4152 2.84495 35.5322 3.95791 36.643C5.07087 37.7539 6.18495 38.4379 7.50079 38.9499C8.77375 39.4443 10.2262 39.7819 12.3554 39.8789C14.489 39.9758 15.1696 40 20.601 40C26.0323 40 26.7141 39.9774 28.8465 39.8789C30.9758 39.7819 32.4298 39.4443 33.7011 38.9499C35.0162 38.4379 36.1309 37.7544 37.244 36.643C38.3571 35.5317 39.0389 34.4152 39.5509 33.1002C40.0453 31.8288 40.3845 30.3747 40.4798 28.2456C40.5768 26.1115 40.5993 25.4314 40.5993 20C40.5993 14.5686 40.5768 13.8869 40.4798 11.7544C40.3829 9.62512 40.0453 8.1704 39.5509 6.89984C39.0389 5.5848 38.3554 4.47008 37.244 3.35696C36.1326 2.24384 35.0162 1.56064 33.7027 1.05008C32.4298 0.55568 30.9757 0.21648 28.8482 0.12112C26.7157 0.02416 26.0339 0 20.6026 0C15.1712 0 14.489 0.02256 12.3554 0.12112Z" fill="#331A15"/>
</g>
<defs>
<clipPath id="clip0_29_525">
<rect width="40" height="40" fill="white" transform="translate(0.599976)"/>
</clipPath>
</defs>
</svg>
