<svg width="41" height="40" viewBox="0 0 41 40" fill="none" xmlns="http://www.w3.org/2000/svg">
<g id="linkedin-icon-2 1" clip-path="url(#clip0_29_529)">
<g id="Group">
<path id="Vector" d="M0.800049 2.93381C0.800049 1.35857 2.11882 0.0799561 3.74447 0.0799561H37.6956C39.3219 0.0799561 40.64 1.35857 40.64 2.93381V37.0666C40.64 38.6423 39.3219 39.92 37.6956 39.92H3.74447C2.11897 39.92 0.800049 38.6424 0.800049 37.067V2.93334V2.93381Z" fill="#331A15"/>
<path id="Vector_2" d="M12.9071 33.4207V15.4846H6.9454V33.4207H12.9077H12.9071ZM9.92748 13.0361C12.006 13.0361 13.3 11.6589 13.3 9.93765C13.2611 8.17722 12.006 6.83838 9.96701 6.83838C7.92661 6.83838 6.59399 8.17722 6.59399 9.93749C6.59399 11.6587 7.88755 13.036 9.88842 13.036H9.92701L9.92748 13.0361ZM16.207 33.4207H22.1682V23.4054C22.1682 22.8701 22.2071 22.3333 22.3646 21.951C22.7953 20.8795 23.7762 19.7703 25.4235 19.7703C27.5802 19.7703 28.4434 21.415 28.4434 23.8264V33.4207H34.4045V23.1367C34.4045 17.6277 31.4638 15.0641 27.5416 15.0641C24.3259 15.0641 22.9136 16.8614 22.1289 18.0856H22.1686V15.4852H16.2073C16.2851 17.1678 16.2068 33.4213 16.2068 33.4213L16.207 33.4207Z" fill="white"/>
</g>
</g>
<defs>
<clipPath id="clip0_29_529">
<rect width="39.84" height="40" fill="white" transform="translate(0.800049)"/>
</clipPath>
</defs>
</svg>
